<svg width="262" height="80" viewBox="0 0 262 80" fill="none" xmlns="http://www.w3.org/2000/svg">
<path d="M41.1725 79.9937C36.8202 79.9937 32.4679 79.9937 28.1157 79.9937C26.5721 79.9937 25.0539 79.7186 23.6116 79.1183C21.7138 78.3428 20.145 77.1422 18.8798 75.5663C14.6034 70.2384 10.3017 64.9355 6.00005 59.6076C4.86137 58.2068 3.72269 56.781 2.58402 55.3803C0.711532 53.029 -0.174103 50.3775 0.0283283 47.4009C0.10424 46.2753 0.382583 45.1497 0.635623 44.0491C2.4828 36.1698 4.30468 28.3155 6.10126 20.4862C6.9616 16.7592 9.11243 14.0577 12.5791 12.4068C20.4233 8.67974 28.2422 4.92769 36.0864 1.20066C39.4771 -0.400218 42.8932 -0.400218 46.2839 1.20066C54.1281 4.92769 61.9976 8.65473 69.8419 12.4068C73.2579 14.0327 75.4087 16.7341 76.2438 20.3861C78.1922 28.7657 80.1153 37.1453 82.0384 45.5249C82.8481 49.1018 82.1396 52.3786 79.8369 55.2552C74.3713 62.084 68.8803 68.8877 63.3641 75.6664C61.0361 78.5179 57.949 79.9437 54.2546 79.9687C49.9024 80.0188 45.5501 79.9937 41.1725 79.9937ZM41.1725 72.7148C44.3608 72.7148 47.5744 72.7148 50.7627 72.7148C51.4459 72.7148 52.1291 72.6647 52.8123 72.5397C55.7476 72.0144 58.1261 70.5886 59.9733 68.2873C61.5422 66.3363 63.111 64.4102 64.6546 62.4592C67.0331 59.5075 69.437 56.5559 71.8156 53.5793C74.1182 50.7027 74.9279 47.4509 74.1182 43.874C72.7518 37.7206 71.3095 31.5673 69.8672 25.4139C69.0068 21.7619 66.8813 19.0854 63.4653 17.4345C57.7972 14.708 52.1038 12.0066 46.4104 9.30508C42.9185 7.65418 39.4265 7.65418 35.9346 9.30508C30.2918 12.0066 24.6237 14.708 18.9557 17.4095C15.5143 19.0604 13.3635 21.7369 12.5032 25.4139C11.2127 30.9669 9.92216 36.52 8.65696 42.073C8.40392 43.1736 8.12558 44.2492 8.02436 45.3748C7.74602 48.5015 8.68227 51.278 10.6813 53.7294C14.5528 58.507 18.4243 63.2846 22.2705 68.0872C24.7502 71.1889 27.9638 72.7148 31.9619 72.7148C35.0236 72.7148 38.0854 72.7148 41.1725 72.7148Z" fill="#000000"/>
<path d="M113.491 46.5505C113.643 46.2753 113.744 46.0752 113.845 45.9001C117.312 38.7712 120.804 31.6423 124.271 24.5134C124.397 24.2383 124.524 23.9631 124.701 23.713C125.511 22.5123 126.902 22.012 128.319 22.3872C129.686 22.7624 130.597 23.9131 130.673 25.3389C130.673 25.5139 130.673 25.689 130.673 25.8892C130.673 34.9441 130.673 44.0241 130.673 53.079C130.673 53.4542 130.647 53.8545 130.571 54.2046C130.242 55.7555 128.674 56.8811 127.105 56.706C125.409 56.5309 124.169 55.2302 124.144 53.5793C124.119 50.1774 124.144 46.7756 124.144 43.3737C124.144 41.7979 124.144 40.222 124.144 38.6211C124.144 38.421 124.144 38.2209 124.144 37.9708C123.84 38.0708 123.815 38.321 123.714 38.496C121.664 42.6483 119.589 46.7756 117.54 50.9278C117.11 51.7783 116.705 52.6538 116.249 53.5043C115.49 54.9801 113.871 55.6304 112.277 55.1301C111.366 54.855 110.758 54.2297 110.353 53.4042C109.518 51.7533 108.683 50.1024 107.848 48.4765C106.229 45.2748 104.609 42.073 102.99 38.8713C102.889 38.6962 102.813 38.5211 102.686 38.2959C102.459 38.496 102.535 38.7212 102.535 38.9213C102.535 41.4727 102.535 44.0491 102.535 46.6005C102.535 48.7517 102.535 50.9278 102.535 53.079C102.535 53.5043 102.509 53.9545 102.383 54.3797C101.953 55.8555 100.46 56.8311 98.9414 56.656C97.2966 56.4559 96.1073 55.2302 96.0314 53.6293C96.0314 53.4292 96.0314 53.2291 96.0314 53.029C96.0314 43.974 96.0314 34.8941 96.0314 25.8391C96.0314 25.4139 96.0314 24.9887 96.1327 24.5884C96.4363 23.3878 97.246 22.5873 98.4859 22.3122C99.7005 22.037 100.839 22.3122 101.674 23.2877C101.953 23.6129 102.155 23.9631 102.357 24.3383C105.925 31.4672 109.493 38.5961 113.061 45.75C113.213 46.0002 113.339 46.2253 113.491 46.5505Z" fill="#000000"/>
<path d="M255.32 33.4183C255.168 33.5934 255.016 33.7685 254.864 33.9686C249.171 41.0224 243.478 48.0763 237.809 55.1552C237.253 55.8305 236.595 56.3308 235.734 56.5309C233.685 56.9812 231.736 55.5054 231.686 53.4042C231.686 53.2791 231.686 53.1541 231.686 53.054C231.686 43.949 231.686 34.8441 231.686 25.7391C231.686 25.3138 231.736 24.8636 231.863 24.4384C232.318 22.9626 233.938 22.012 235.507 22.2622C237.126 22.5123 238.189 23.688 238.214 25.3138C238.24 27.5401 238.214 29.7663 238.214 31.9675C238.214 36.2448 238.214 40.5222 238.214 44.8245C238.214 45.0496 238.214 45.2497 238.214 45.4749C238.265 45.4999 238.29 45.5249 238.341 45.5249C238.493 45.3498 238.644 45.1747 238.796 44.9996C242.516 40.3971 246.261 35.7696 249.981 31.167C251.954 28.7157 253.953 26.2644 255.927 23.813C256.003 23.713 256.104 23.5879 256.205 23.4878C257.218 22.2622 258.685 22.0621 259.925 22.4873C261.216 22.9125 262 24.0882 262 25.564C262 33.4933 262 41.4226 262 49.327C262 50.7277 262 52.1285 262 53.5293C261.975 54.83 261.19 55.9556 260.001 56.4309C258.71 56.9311 257.293 56.631 256.357 55.6554C255.801 55.0801 255.522 54.3797 255.472 53.6043C255.472 53.3792 255.472 53.1541 255.472 52.954C255.472 46.7005 255.472 40.4721 255.472 34.2187C255.472 33.9936 255.472 33.7434 255.472 33.5183C255.421 33.4433 255.37 33.4433 255.32 33.4183Z" fill="#000000"/>
<path d="M196.362 39.3965C196.463 33.5934 198.639 28.7657 203.32 25.1888C206.23 22.9625 209.545 21.8369 213.239 21.7869C215.086 21.7619 216.908 21.887 218.705 22.4123C221.008 23.0626 222.981 24.2883 224.778 25.8141C225.765 26.6396 225.942 27.7652 225.613 28.9408C225.284 30.1165 224.398 30.7418 223.234 31.017C222.197 31.2421 221.286 30.9419 220.451 30.3166C219.894 29.8913 219.312 29.4661 218.73 29.0909C217.541 28.3155 216.225 27.9903 214.833 27.8902C212.354 27.7151 210.051 28.1654 207.951 29.5662C205.319 31.3421 203.649 33.7935 203.042 36.8702C202.359 40.297 202.915 43.5238 204.965 46.4254C206.686 48.8267 209.014 50.3775 211.999 50.8278C213.948 51.128 215.871 50.9028 217.693 50.1274C218.705 49.6772 219.666 49.1269 220.577 48.4765C221.21 48.0263 221.919 47.7261 222.728 47.7761C224.196 47.8261 225.385 48.8767 225.562 50.3275C225.714 51.6282 225.284 52.6788 224.221 53.4792C220.906 55.9806 217.136 57.3063 212.961 57.0562C205.623 56.631 200.537 52.954 197.652 46.3003C196.716 44.0991 196.362 41.7728 196.362 39.3965Z" fill="#000000"/>
<path d="M182.014 40.8723C182.166 40.5972 182.267 40.3971 182.368 40.222C184.949 34.9691 187.556 29.7162 190.137 24.4884C190.314 24.1132 190.516 23.738 190.769 23.3878C191.529 22.4123 192.541 22.012 193.755 22.3122C194.135 22.4123 194.54 22.5623 194.869 22.7624C196.109 23.4378 196.589 24.6385 196.159 25.9892C196.058 26.2894 195.931 26.5895 195.805 26.8647C192.035 34.5439 188.264 42.2231 184.469 49.9023C183.634 51.6032 182.596 53.1791 181.23 54.5048C179.965 55.7305 178.497 56.631 176.7 56.9061C174.55 57.2563 172.601 56.781 170.83 55.5304C169.615 54.6549 169.236 53.1291 169.868 51.8283C170.526 50.4776 171.893 49.7772 173.386 50.1024C173.79 50.2025 174.195 50.3525 174.575 50.5276C175.233 50.8778 175.865 50.8028 176.447 50.4026C177.333 49.8272 177.94 49.0018 178.446 48.1013C179.028 47.1008 179.028 47.1008 178.421 46.1252C174.55 39.8468 170.678 33.5684 166.807 27.2649C166.554 26.8397 166.326 26.3894 166.174 25.9142C165.896 25.0387 166.123 24.2382 166.731 23.5629C167.389 22.8125 168.224 22.3372 169.236 22.2121C170.045 22.1121 170.779 22.3622 171.336 22.9375C171.69 23.2877 171.994 23.713 172.247 24.1382C175.359 29.4911 178.472 34.8441 181.584 40.197C181.711 40.3971 181.837 40.5972 182.014 40.8723Z" fill="#000000"/>
<path d="M152.181 28.5156C152.181 28.8408 152.181 29.1159 152.181 29.3661C152.181 37.2204 152.181 45.0496 152.181 52.9039C152.181 53.1541 152.181 53.3792 152.181 53.6293C152.105 55.3803 150.688 56.756 148.891 56.731C147.095 56.731 145.703 55.3553 145.652 53.5793C145.652 53.1791 145.652 52.7789 145.652 52.3786C145.652 44.6994 145.652 37.0202 145.652 29.341C145.652 29.0909 145.652 28.8408 145.652 28.5156C145.349 28.5156 145.096 28.5156 144.868 28.5156C142.565 28.5156 140.263 28.5156 137.935 28.5156C137.555 28.5156 137.15 28.4906 136.796 28.3905C135.328 28.0153 134.443 26.6146 134.62 25.0137C134.772 23.5379 136.012 22.4123 137.505 22.3372C137.682 22.3372 137.859 22.3372 138.061 22.3372C145.374 22.3372 152.662 22.3372 159.975 22.3372C160.329 22.3372 160.708 22.3372 161.063 22.4123C162.606 22.7624 163.593 24.1632 163.416 25.7141C163.239 27.365 162.024 28.4906 160.329 28.5156C158.811 28.5406 157.292 28.5156 155.774 28.5156C154.812 28.5156 153.826 28.5156 152.864 28.5156C152.662 28.4906 152.459 28.4906 152.181 28.5156Z" fill="#000000"/>
</svg>

